<?xml version="1.0" standalone="no"?>
<!DOCTYPE svg PUBLIC "-//W3C//DTD SVG 20010904//EN"
 "http://www.w3.org/TR/2001/REC-SVG-20010904/DTD/svg10.dtd">
<svg version="1.0" xmlns="http://www.w3.org/2000/svg"
 width="700.000000pt" height="700.000000pt" viewBox="0 0 700.000000 700.000000"
 preserveAspectRatio="xMidYMid meet">
<metadata>
Created by potrace 1.14, written by Peter Selinger 2001-2017
</metadata>
<g transform="translate(0.000000,700.000000) scale(0.100000,-0.100000)"
fill="#000000" stroke="none">
<path d="M3372 6620 c-97 -13 -132 -19 -198 -35 -34 -8 -73 -16 -85 -19 -95
-17 -357 -104 -509 -168 -96 -40 -272 -130 -345 -176 -176 -112 -310 -209
-270 -195 11 3 27 11 35 17 38 28 301 160 400 201 274 113 722 229 975 252
149 13 561 6 654 -12 10 -2 42 -6 72 -10 117 -14 446 -104 554 -150 270 -117
379 -172 520 -263 61 -39 221 -156 235 -171 3 -3 28 -24 55 -45 84 -67 336
-325 421 -432 264 -331 478 -771 590 -1209 27 -106 27 -105 40 -175 4 -25 8
-47 9 -50 18 -83 27 -244 22 -415 -4 -110 -9 -211 -11 -225 -3 -14 -7 -43 -10
-65 -8 -60 -24 -138 -42 -208 -9 -34 -17 -66 -18 -72 -2 -12 -25 -84 -33 -105
-3 -8 -7 -19 -8 -25 -20 -85 -228 -524 -315 -665 -335 -544 -788 -930 -1395
-1190 -198 -84 -488 -168 -640 -185 -32 -4 -62 -8 -65 -10 -13 -8 -210 -18
-355 -18 -225 -1 -316 7 -537 48 -88 16 -323 107 -363 140 -19 15 -15 16 65
11 83 -6 108 -9 180 -20 351 -57 533 -72 613 -51 41 11 33 25 -15 26 -24 0
-54 2 -68 5 -14 2 -37 6 -52 8 -34 5 -48 14 -48 30 0 23 -51 66 -92 76 -62 17
-46 28 157 102 183 66 347 119 525 167 211 58 491 194 715 349 162 112 282
220 414 372 31 36 62 71 69 78 7 8 44 58 82 112 81 112 141 236 194 398 36
106 70 262 60 271 -2 3 -25 -10 -49 -27 -45 -31 -46 -31 -64 -13 -11 11 -23
41 -27 68 -3 26 -8 57 -10 68 -2 11 -7 65 -10 120 -4 55 -8 101 -9 103 -2 2
-8 -23 -15 -55 -36 -180 -65 -300 -97 -393 -126 -375 -421 -758 -799 -1037
-94 -69 -258 -173 -358 -227 -131 -71 -497 -217 -606 -242 -8 -1 -60 -14 -115
-27 -246 -60 -353 -69 -660 -53 -263 14 -600 78 -915 173 -169 51 -444 174
-574 256 -69 45 -90 52 -82 30 16 -40 81 -112 249 -278 248 -244 464 -402 752
-551 235 -122 584 -248 785 -284 155 -28 188 -31 473 -44 26 -1 47 2 47 6 0 4
-12 8 -27 9 -16 0 -35 2 -43 4 -8 2 -33 6 -55 10 -86 13 -276 58 -390 91 -236
70 -499 187 -714 319 -139 86 -354 237 -359 253 -7 22 76 14 167 -17 47 -15
129 -41 181 -56 52 -15 105 -36 116 -47 13 -11 45 -23 78 -27 31 -4 62 -13 68
-19 7 -7 19 -12 28 -12 9 0 25 -9 35 -20 13 -14 22 -17 30 -10 18 15 75 -7 68
-26 -3 -9 6 -24 22 -38 20 -17 24 -25 14 -29 -22 -9 31 -52 88 -72 26 -10 86
-35 133 -56 91 -40 216 -84 342 -119 152 -42 221 -48 453 -45 240 4 261 6 415
36 99 20 129 27 259 63 30 8 57 14 60 13 3 -1 26 6 51 15 25 9 70 24 100 33
93 28 302 128 445 212 64 39 274 166 315 192 26 16 36 20 160 66 94 34 157 81
286 209 129 129 269 300 374 457 184 275 374 739 415 1014 4 22 13 72 21 110
54 254 71 402 68 593 -1 103 -11 256 -19 297 -2 11 -7 42 -10 69 -37 308 -163
694 -317 971 -376 677 -924 1167 -1629 1460 -110 46 -325 118 -384 129 -11 2
-47 11 -80 19 -70 18 -222 43 -315 52 -110 10 -481 13 -548 5z"/>
<path d="M3578 6335 c-2 -2 -34 -6 -72 -10 -38 -3 -73 -8 -76 -10 -4 -3 -22
-6 -41 -9 -215 -27 -591 -170 -829 -317 -392 -240 -748 -613 -934 -978 -83
-164 -162 -392 -180 -526 -4 -22 -8 -51 -11 -65 -21 -110 -30 -220 -29 -365 0
-126 7 -214 23 -305 17 -89 21 -114 27 -132 3 -10 7 -29 10 -43 8 -46 74 -254
115 -368 76 -205 147 -342 242 -467 64 -84 309 -325 381 -375 96 -66 82 -45
-88 135 -117 124 -242 294 -323 440 -83 150 -124 232 -121 242 4 11 23 -17
127 -192 161 -271 396 -537 610 -691 148 -105 391 -209 576 -245 11 -2 31 -6
45 -9 218 -48 536 -54 789 -14 36 5 67 12 70 13 3 2 22 7 41 10 126 20 415
143 591 252 325 201 552 465 648 751 24 70 61 208 61 225 0 20 -31 -30 -33
-52 -4 -53 -21 0 -62 188 -3 12 -7 32 -10 43 -11 53 -28 90 -38 86 -6 -2 -39
-49 -72 -104 -103 -173 -218 -301 -366 -409 -127 -94 -339 -196 -514 -250 -86
-27 -101 -28 -315 -30 -235 -3 -295 4 -410 45 -405 145 -697 464 -805 880 -24
93 -30 153 -30 291 1 183 20 280 92 460 125 315 263 475 518 603 181 92 373
122 575 90 241 -38 440 -136 598 -293 300 -299 382 -739 206 -1102 -44 -91
-72 -127 -178 -234 -158 -157 -304 -218 -521 -216 -228 3 -385 109 -450 301
-25 73 -33 209 -15 255 10 28 13 29 63 23 48 -5 150 -30 255 -62 23 -8 42 -12
42 -9 0 5 -19 14 -175 80 -49 20 -106 47 -125 59 -19 12 -51 27 -70 35 -76 29
-161 109 -100 93 35 -9 22 6 -27 31 -44 23 -46 24 -18 23 36 -2 50 17 17 21
-31 5 -40 31 -17 48 10 7 23 24 29 36 7 14 22 24 39 26 33 4 34 12 2 42 -27
25 -25 40 5 40 11 0 27 11 36 25 44 68 291 65 474 -6 124 -47 239 -132 239
-176 0 -10 6 -43 13 -73 15 -57 15 -81 5 -141 -5 -28 -2 -42 13 -59 11 -13 20
-29 20 -37 0 -24 18 -14 54 30 93 114 116 281 62 453 -55 174 -188 317 -343
368 -131 43 -328 39 -463 -10 -197 -72 -402 -312 -446 -524 -4 -19 -9 -42 -11
-50 -2 -8 -4 -76 -4 -150 -1 -234 53 -412 174 -576 162 -220 378 -327 650
-323 241 3 446 74 622 213 217 171 383 442 440 715 25 122 34 254 21 316 -2
11 -7 40 -11 65 -34 209 -204 497 -385 653 -170 146 -428 272 -630 308 -74 13
-295 16 -385 5 -201 -24 -431 -128 -601 -272 -244 -207 -402 -463 -487 -789
-75 -289 -89 -495 -46 -683 6 -26 12 -56 15 -67 9 -49 59 -187 93 -260 145
-310 393 -573 671 -712 58 -29 98 -53 88 -53 -26 0 -191 56 -250 86 -192 96
-416 302 -555 510 -88 132 -162 264 -188 334 -9 25 -21 54 -26 65 -32 75 -80
375 -83 525 -2 89 5 157 29 265 8 39 44 156 64 210 144 384 488 725 896 890
95 38 285 91 364 101 25 3 57 8 71 10 14 2 86 4 160 4 315 3 618 -83 867 -246
49 -31 90 -59 93 -63 3 -3 25 -22 50 -41 63 -48 101 -83 279 -258 222 -218
280 -238 200 -67 -68 148 -180 299 -328 445 -153 151 -317 254 -521 328 -79
29 -246 75 -315 87 -16 2 -39 7 -51 9 -12 2 -45 7 -75 11 -30 3 -61 8 -69 10
-8 2 -46 6 -85 10 -278 25 -318 34 -228 53 149 32 436 35 636 7 71 -10 227
-52 337 -90 442 -155 740 -438 939 -893 54 -123 128 -354 145 -455 3 -15 7
-35 10 -45 3 -9 7 -28 10 -42 2 -14 11 -63 20 -110 8 -47 18 -107 22 -135 3
-27 8 -53 10 -56 1 -3 6 -51 9 -107 5 -69 4 -102 -4 -102 -14 0 -36 81 -48
175 -4 33 -14 58 -30 74 -12 13 -23 33 -23 44 0 28 -22 97 -31 97 -12 0 -17
-25 -28 -127 -10 -96 -14 -136 -26 -278 -4 -38 -8 -86 -10 -105 -3 -33 -2 -32
21 18 13 28 27 52 31 52 12 -1 112 -172 133 -228 10 -27 24 -85 32 -130 12
-82 16 -90 22 -56 2 11 9 39 16 64 14 50 14 53 35 165 79 429 41 809 -125
1225 -39 98 -68 162 -151 339 -27 57 -52 115 -55 130 -5 24 -3 23 32 -14 138
-148 255 -317 339 -490 128 -263 171 -462 162 -735 -3 -91 -8 -174 -10 -185
-3 -11 -8 -41 -11 -68 -35 -256 -206 -851 -324 -1127 -71 -166 -216 -412 -306
-520 -52 -62 -185 -209 -277 -305 -180 -189 -208 -220 -198 -224 25 -8 459
227 548 296 75 59 321 312 393 404 120 153 208 310 254 454 23 71 23 88 2 67
-17 -17 -59 -16 -52 2 4 10 -3 12 -30 9 -27 -2 -40 2 -53 17 -10 11 -26 20
-35 20 -30 0 -40 46 -35 155 3 55 9 113 12 129 70 335 145 600 186 649 32 39
91 60 126 44 34 -15 91 -152 118 -285 15 -74 21 -319 10 -386 -24 -142 -108
-454 -134 -505 -5 -9 -26 -61 -46 -116 -21 -54 -53 -133 -71 -174 -19 -41 -32
-76 -30 -78 6 -7 74 98 142 217 52 91 81 151 139 285 38 89 90 285 121 455 10
56 13 448 4 525 -16 131 -21 170 -41 270 -150 773 -602 1464 -1227 1877 -368
242 -716 377 -1122 433 -94 13 -394 28 -402 20z m-1296 -1068 c-191 -274 -267
-433 -348 -727 -19 -69 -38 -150 -41 -180 -7 -56 -9 -393 -3 -530 14 -321 182
-764 385 -1016 94 -117 236 -246 353 -320 142 -91 361 -181 532 -219 173 -38
259 -44 525 -41 143 3 271 7 285 9 14 3 50 8 80 11 71 8 248 57 368 102 52 20
97 32 100 29 20 -20 -124 -110 -263 -165 -74 -29 -286 -84 -365 -94 -125 -16
-188 -20 -335 -20 -406 0 -542 19 -752 108 -203 86 -356 189 -518 351 -308
308 -530 732 -610 1165 -20 112 -24 171 -25 377 -1 240 10 314 71 503 85 261
239 504 392 618 67 49 241 160 245 156 2 -1 -32 -54 -76 -117z m233 -1160 c-2
-7 -6 -43 -9 -82 -8 -100 -24 -177 -41 -194 -24 -24 -36 -4 -48 79 0 3 2 12 6
20 3 8 8 35 11 60 5 45 40 142 60 169 8 10 12 8 18 -14 3 -15 5 -32 3 -38z
m-964 -134 c6 -32 13 -67 14 -78 10 -75 17 -131 20 -146 2 -9 7 -39 11 -66 3
-26 8 -56 10 -65 12 -68 15 -196 4 -203 -8 -5 -7 -12 5 -25 32 -36 -5 -125
-38 -90 -9 10 -9 14 1 17 8 3 3 16 -18 39 -23 27 -28 39 -21 53 7 11 7 21 1
27 -6 6 -13 30 -16 55 -4 24 -10 52 -15 61 -10 20 -13 330 -3 398 6 42 20 80
29 80 2 0 9 -26 16 -57z"/>
<path d="M2550 6215 c0 -9 5 -15 11 -13 6 2 11 8 11 13 0 5 -5 11 -11 13 -6 2
-11 -4 -11 -13z"/>
<path d="M2241 6041 c-19 -12 -4 -51 20 -51 16 0 20 6 17 27 -3 29 -16 37 -37
24z"/>
<path d="M1433 5633 c-123 -120 -214 -233 -345 -423 -175 -256 -270 -455 -293
-615 -4 -22 -9 -51 -11 -65 -3 -14 -7 -92 -9 -175 -2 -148 5 -257 24 -365 6
-30 13 -71 16 -90 15 -91 78 -306 111 -377 8 -17 14 -34 14 -37 0 -9 35 -88
83 -186 178 -365 418 -608 784 -794 68 -35 93 -43 93 -30 0 4 -46 61 -102 128
-141 168 -219 266 -325 408 -105 142 -240 391 -313 577 -41 104 -103 305 -114
371 -3 19 -10 62 -16 95 -16 91 -24 199 -24 310 1 128 9 224 29 325 3 14 8 39
11 55 2 17 9 44 15 61 5 17 11 40 13 50 3 10 18 55 34 100 70 187 170 371 321
589 107 155 114 165 97 165 -8 0 -49 -35 -93 -77z"/>
<path d="M3600 5051 c0 -20 27 -48 37 -37 9 8 -14 56 -27 56 -5 0 -10 -8 -10
-19z"/>
<path d="M3290 5022 c0 -6 14 -22 31 -36 49 -41 83 -31 37 11 -27 24 -68 39
-68 25z"/>
<path d="M1219 4672 c-24 -20 -21 -52 6 -52 19 0 55 35 55 55 0 21 -33 19 -61
-3z"/>
<path d="M3275 4676 c-19 -14 -19 -15 -2 -21 22 -9 50 2 45 17 -6 18 -22 20
-43 4z"/>
<path d="M721 4628 c-46 -109 -59 -180 -67 -378 -6 -146 -1 -187 9 -75 7 69
25 203 32 225 2 8 6 26 9 40 2 14 9 43 14 65 22 82 36 165 28 165 -4 0 -15
-19 -25 -42z"/>
<path d="M5731 4614 c0 -11 3 -14 6 -6 3 7 2 16 -1 19 -3 4 -6 -2 -5 -13z"/>
<path d="M4962 4540 c-12 -5 -25 -17 -29 -25 -9 -26 13 -62 43 -69 27 -7 84 9
84 24 0 5 3 15 6 23 3 9 -4 25 -15 36 -22 22 -51 26 -89 11z"/>
<path d="M5766 4483 c-7 -17 16 -43 36 -43 15 0 20 30 8 45 -17 20 -36 19 -44
-2z"/>
<path d="M5185 4480 c-3 -5 1 -10 9 -10 9 0 16 5 16 10 0 6 -4 10 -9 10 -6 0
-13 -4 -16 -10z"/>
<path d="M570 4373 c-27 -73 -67 -224 -75 -283 -3 -25 -8 -63 -10 -85 -14
-111 0 -546 20 -615 4 -14 8 -32 20 -97 3 -16 8 -35 11 -43 3 -8 8 -26 10 -39
11 -54 95 -294 139 -391 136 -309 320 -514 670 -747 130 -87 181 -113 359
-183 87 -35 165 -71 175 -80 9 -9 79 -34 156 -54 77 -21 153 -46 168 -57 16
-12 64 -26 117 -35 50 -8 136 -29 192 -48 372 -124 638 -160 982 -132 291 23
622 157 936 380 47 33 87 63 90 66 3 3 27 23 55 45 111 89 325 318 325 347 0
5 -33 -20 -72 -54 -167 -146 -394 -267 -668 -358 -82 -27 -303 -84 -365 -93
-16 -3 -59 -10 -95 -16 -36 -6 -103 -13 -150 -17 -47 -3 -105 -7 -130 -10 -58
-5 -480 -5 -542 0 -98 8 -199 23 -358 53 -357 66 -736 222 -967 398 -66 50
-157 136 -136 128 10 -3 25 -12 33 -18 54 -44 427 -245 455 -245 3 0 24 -9 48
-20 183 -84 644 -204 873 -227 98 -10 627 -10 709 -1 108 13 260 41 395 73
178 43 397 126 554 212 210 115 350 232 521 434 37 43 100 139 92 139 -3 0
-29 -33 -59 -72 -82 -113 -167 -201 -291 -305 -181 -152 -534 -321 -818 -392
-117 -29 -124 -31 -199 -38 -130 -14 -764 -4 -790 12 -3 2 -30 6 -60 9 -44 5
-223 40 -312 61 -46 11 -145 38 -163 44 -11 4 -51 18 -90 30 -332 105 -778
309 -990 452 -71 48 -82 57 -171 139 -190 173 -381 479 -482 770 -83 241 -107
387 -106 645 0 83 3 173 7 200 13 100 18 175 14 175 -3 0 -15 -26 -27 -57z"/>
<path d="M1093 4246 c7 -15 16 -21 21 -16 12 12 0 40 -18 40 -11 0 -12 -5 -3
-24z"/>
<path d="M1165 4261 c-6 -11 21 -41 38 -41 7 0 19 5 27 10 13 9 12 12 -4 25
-22 17 -52 20 -61 6z"/>
<path d="M1290 4260 c0 -5 5 -10 10 -10 6 0 10 5 10 10 0 6 -4 10 -10 10 -5 0
-10 -4 -10 -10z"/>
<path d="M4940 4260 c-18 -11 -13 -13 80 -34 65 -14 65 -14 41 5 -13 10 -31
19 -42 19 -10 0 -21 5 -24 10 -8 12 -35 13 -55 0z"/>
<path d="M1310 4215 c-11 -13 -10 -14 3 -9 8 3 26 0 39 -7 23 -12 23 -12 4 10
-23 25 -29 26 -46 6z"/>
<path d="M5165 4170 c3 -5 13 -10 21 -10 8 0 14 5 14 10 0 6 -9 10 -21 10 -11
0 -17 -4 -14 -10z"/>
<path d="M654 3905 c3 -77 10 -160 15 -185 6 -25 20 -90 32 -145 11 -55 27
-105 35 -111 8 -6 14 -15 14 -21 0 -5 6 -18 14 -29 13 -17 14 -14 5 25 -5 24
-12 48 -15 52 -22 36 -79 327 -89 459 -11 133 -17 109 -11 -45z"/>
<path d="M3338 4023 c7 -3 16 -2 19 1 4 3 -2 6 -13 5 -11 0 -14 -3 -6 -6z"/>
<path d="M2137 3983 c-11 -10 24 -43 46 -43 20 0 20 1 -3 25 -25 26 -32 29
-43 18z"/>
<path d="M2169 3898 c8 -23 51 -39 51 -19 0 14 -29 41 -45 41 -11 0 -12 -6 -6
-22z"/>
<path d="M3825 3766 c17 -8 32 -12 34 -10 7 7 -3 12 -34 18 l-30 6 30 -14z"/>
<path d="M3735 3569 c-4 -5 0 -18 9 -28 22 -24 21 -26 -23 -41 -22 -7 -42 -19
-45 -26 -7 -19 3 -44 18 -44 7 0 36 -12 64 -26 39 -19 60 -24 80 -19 15 5 35
9 44 10 23 2 27 7 30 36 2 17 -1 23 -12 20 -8 -2 -31 -8 -51 -14 -19 -6 -47
-7 -62 -3 -26 6 -26 7 -8 27 32 36 35 39 60 57 16 12 21 23 16 32 -6 10 -11 9
-21 -5 -13 -17 -15 -16 -48 9 -39 29 -42 30 -51 15z"/>
<path d="M5337 3564 c3 -9 1 -19 -5 -23 -15 -9 -2 -27 26 -35 28 -9 39 15 24
50 -13 27 -56 35 -45 8z"/>
<path d="M830 3260 c0 -13 38 -80 46 -80 4 0 -34 80 -42 89 -2 2 -4 -2 -4 -9z"/>
<path d="M900 3127 c0 -23 185 -297 212 -313 15 -10 7 3 -82 131 -42 61 -89
128 -103 150 -15 22 -27 36 -27 32z"/>
<path d="M1154 2756 c23 -37 113 -128 149 -151 36 -23 46 -13 13 13 -15 11
-26 24 -26 30 0 12 -86 92 -99 92 -6 0 -20 10 -32 23 l-23 22 18 -29z"/>
<path d="M594 2643 c18 -73 162 -348 258 -491 139 -208 300 -352 493 -442 119
-55 127 -58 235 -98 319 -120 682 -217 880 -237 36 -3 79 -8 95 -11 44 -9 19
9 -40 29 -27 9 -129 39 -225 66 -96 28 -215 64 -265 82 -49 17 -110 38 -135
47 -83 29 -415 200 -510 263 -122 80 -239 169 -314 239 -235 220 -280 273
-392 464 -67 114 -93 142 -80 89z"/>
<path d="M1405 2514 c44 -40 75 -59 75 -47 0 15 -15 29 -55 56 -56 38 -67 33
-20 -9z"/>
<path d="M1510 2441 c0 -6 5 -13 10 -16 6 -3 10 1 10 9 0 9 -4 16 -10 16 -5 0
-10 -4 -10 -9z"/>
<path d="M2020 2225 c0 -8 5 -15 10 -15 6 0 10 7 10 15 0 8 -4 15 -10 15 -5 0
-10 -7 -10 -15z"/>
<path d="M2432 2148 c5 -15 28 -23 28 -10 0 5 -7 13 -16 16 -10 4 -14 1 -12
-6z"/>
</g>
</svg>
