<?xml version="1.0" standalone="no"?>
<!DOCTYPE svg PUBLIC "-//W3C//DTD SVG 20010904//EN"
 "http://www.w3.org/TR/2001/REC-SVG-20010904/DTD/svg10.dtd">
<svg version="1.0" xmlns="http://www.w3.org/2000/svg"
 width="500.000000pt" height="500.000000pt" viewBox="0 0 500.000000 500.000000"
 preserveAspectRatio="xMidYMid meet">

<g transform="translate(0.000000,500.000000) scale(0.100000,-0.100000)"
fill="#000000" stroke="none">
<path d="M2415 4729 c-207 -25 -456 -100 -662 -199 -108 -52 -281 -160 -353
-221 -24 -20 -23 -20 15 1 126 71 171 94 270 138 187 83 462 159 680 188 157
21 423 14 585 -14 205 -37 381 -97 585 -199 226 -114 431 -280 635 -514 246
-282 447 -733 500 -1126 18 -128 8 -388 -20 -516 -40 -188 -96 -336 -214 -567
-211 -413 -529 -720 -961 -930 -294 -143 -552 -203 -870 -203 -245 -1 -423 33
-597 112 -95 43 -55 48 140 17 280 -44 326 -49 396 -42 37 5 64 12 60 17 -3 5
-11 9 -17 7 -7 -1 -40 1 -74 6 -46 5 -63 11 -63 22 0 24 -32 51 -68 59 -19 4
-30 11 -25 15 19 19 372 142 473 165 230 53 547 228 732 403 121 115 250 278
298 377 43 89 94 244 105 318 l7 47 -31 -17 c-17 -10 -31 -22 -31 -26 0 -4 -9
-3 -19 2 -14 8 -21 27 -27 73 -4 35 -8 68 -9 73 -1 6 -3 39 -5 75 -1 36 -4 56
-7 45 -2 -11 -13 -67 -24 -125 -40 -207 -100 -349 -221 -527 -150 -221 -359
-405 -637 -562 -166 -93 -466 -201 -621 -222 -41 -6 -82 -14 -90 -18 -23 -11
-268 -13 -251 -2 9 6 -10 7 -50 4 -114 -9 -494 65 -705 138 -120 41 -289 121
-361 170 -109 76 -51 -12 118 -176 140 -135 178 -168 299 -252 175 -122 359
-214 569 -284 161 -54 241 -73 383 -88 88 -10 303 -13 233 -4 -378 50 -706
176 -1005 386 -52 36 -105 73 -117 82 -13 9 -23 20 -23 24 0 15 92 1 136 -20
22 -10 48 -19 57 -19 9 0 34 -6 54 -14 21 -8 51 -17 66 -20 15 -4 25 -11 22
-15 -6 -10 50 -26 77 -22 9 1 19 -3 23 -9 3 -5 13 -10 22 -10 9 0 22 -8 29
-17 10 -13 16 -15 21 -6 6 8 16 8 38 -2 20 -9 24 -14 12 -14 -15 -1 -13 -5 10
-26 17 -15 22 -24 14 -25 -30 0 23 -40 72 -55 28 -8 64 -23 82 -33 40 -25 195
-76 310 -103 68 -16 118 -21 205 -20 165 2 259 8 313 21 26 5 64 13 85 16 20
3 55 12 77 19 58 19 99 29 109 26 4 -1 13 3 20 8 6 5 29 13 51 17 82 15 283
115 472 235 51 33 97 59 103 59 5 0 10 5 10 10 0 6 7 10 15 10 9 0 30 7 47 16
17 9 42 18 57 20 86 16 320 259 471 489 129 198 262 532 285 717 3 23 10 59
15 78 5 19 12 51 15 70 3 19 10 58 15 86 61 341 -31 852 -213 1184 -151 277
-350 524 -568 706 -309 258 -723 448 -1084 499 -135 19 -372 26 -470 14z"/>
<path d="M2555 4524 c-419 -41 -811 -239 -1123 -569 -259 -273 -388 -551 -423
-915 -23 -229 7 -428 106 -710 52 -148 98 -245 156 -332 74 -108 269 -298 349
-338 14 -7 -18 32 -71 86 -106 110 -165 184 -238 301 -43 70 -121 218 -121
230 0 16 25 -18 61 -85 124 -226 328 -460 495 -568 200 -128 449 -194 735
-194 222 0 422 46 610 140 342 170 552 402 624 687 8 34 18 70 22 80 6 16 5
16 -10 4 -10 -8 -17 -29 -18 -50 0 -23 -9 3 -24 74 -31 141 -39 168 -51 172
-5 2 -24 -27 -43 -63 -64 -124 -174 -244 -304 -333 -71 -49 -241 -127 -332
-153 -70 -20 -102 -23 -250 -23 -167 1 -172 1 -269 34 -441 152 -692 620 -569
1061 21 78 91 237 127 290 81 121 163 191 298 255 171 81 360 85 564 11 334
-121 537 -489 453 -818 -33 -129 -73 -202 -164 -294 -118 -120 -220 -163 -382
-164 -156 0 -273 74 -322 206 -21 54 -27 144 -15 192 8 30 33 29 161 -9 58
-16 107 -28 109 -26 2 2 -40 20 -95 41 -54 21 -115 48 -134 62 -20 13 -41 24
-47 24 -18 0 -90 50 -90 63 0 3 10 3 23 0 30 -8 15 7 -31 28 l-37 18 33 -6
c20 -3 32 -1 32 6 0 6 -9 11 -19 11 -27 0 -35 27 -10 35 11 4 18 14 17 23 -2
12 5 18 26 20 l28 4 -22 23 -23 24 26 6 c14 4 27 15 30 25 4 14 19 20 72 25
98 11 170 1 260 -35 44 -17 82 -35 85 -39 3 -4 19 -16 37 -26 18 -10 30 -22
28 -26 -3 -4 2 -10 11 -13 8 -3 12 -10 9 -16 -3 -5 -3 -16 2 -22 4 -7 8 -19 9
-25 1 -7 5 -29 8 -50 3 -21 2 -44 -2 -51 -11 -16 -3 -64 9 -56 5 3 9 -4 9 -16
0 -32 21 -20 57 33 114 169 27 448 -171 549 -95 49 -249 54 -373 12 -109 -37
-224 -146 -283 -268 -40 -84 -52 -144 -52 -256 -2 -320 204 -589 482 -631 183
-28 388 22 532 129 203 151 330 383 354 643 16 188 -80 417 -247 589 -100 102
-272 200 -427 242 -113 31 -317 31 -427 -1 -166 -47 -271 -107 -399 -230 -156
-151 -250 -329 -306 -581 -24 -109 -40 -258 -34 -307 32 -228 95 -384 228
-560 106 -141 256 -261 390 -312 68 -27 35 -26 -50 0 -220 68 -420 248 -573
514 -85 148 -111 233 -136 440 -19 152 -13 222 32 375 152 525 724 877 1274
784 287 -49 465 -147 706 -390 84 -85 157 -154 162 -154 5 0 16 -3 25 -6 23
-9 20 13 -13 83 -75 159 -227 336 -369 430 -192 128 -407 190 -762 219 -117 9
-126 18 -33 35 107 19 335 17 446 -5 202 -39 393 -119 537 -226 210 -157 372
-430 449 -760 52 -219 85 -470 63 -470 -11 0 -44 148 -37 160 3 5 -4 14 -15
20 -12 6 -20 19 -19 28 1 9 0 24 -4 32 -3 8 -8 24 -12 35 -12 37 -22 -4 -34
-145 -6 -74 -14 -160 -17 -190 l-5 -55 15 38 c15 40 23 53 30 46 2 -2 21 -33
43 -69 46 -74 63 -122 73 -200 l6 -55 23 94 c50 208 63 417 36 591 -29 198
-80 347 -206 610 -80 166 -73 165 68 -10 62 -77 102 -139 149 -235 137 -278
155 -505 70 -883 -45 -197 -137 -491 -203 -647 -39 -92 -125 -242 -187 -325
-31 -41 -125 -147 -208 -234 -84 -88 -159 -168 -166 -178 -21 -29 304 141 388
203 84 62 244 229 321 334 67 92 124 199 149 276 23 76 23 76 8 61 -7 -7 -21
-12 -32 -12 -17 0 -18 2 -6 10 12 8 11 10 -5 8 -39 -3 -66 2 -61 11 3 5 -5 12
-19 15 -25 6 -26 7 -30 96 -2 37 20 168 39 231 9 30 27 103 41 163 34 148 58
193 107 208 34 10 41 9 61 -10 14 -13 32 -53 45 -95 30 -104 32 -116 37 -234
5 -87 1 -126 -16 -203 -27 -123 -46 -193 -69 -255 -55 -148 -86 -225 -107
-267 -13 -27 -21 -48 -19 -48 13 0 122 180 165 271 122 261 161 509 127 826
-44 413 -216 812 -494 1144 -280 334 -719 590 -1132 659 -117 19 -292 31 -365
24z m-876 -693 c-143 -199 -185 -272 -243 -417 -19 -49 -48 -139 -63 -200 -26
-101 -28 -123 -27 -309 0 -147 5 -224 17 -290 116 -597 479 -949 1047 -1016
144 -16 417 -6 535 20 76 16 199 56 268 86 29 12 19 -12 -16 -39 -49 -38 -172
-92 -259 -114 -196 -52 -351 -60 -698 -38 -110 7 -301 82 -432 170 -304 203
-547 598 -615 996 -20 117 -22 380 -4 465 55 260 178 484 323 592 48 35 168
112 177 113 2 0 -3 -9 -10 -19z m116 -903 c-6 -91 -15 -152 -26 -181 -9 -22
-14 -25 -26 -16 -7 7 -13 19 -11 28 1 9 -1 22 -5 29 -5 6 -5 12 0 12 4 0 8 15
9 33 0 18 4 42 9 53 4 10 9 21 10 24 11 42 27 68 41 70 1 0 0 -24 -1 -52z
m-671 -187 c4 -41 9 -78 11 -82 3 -3 7 -30 10 -60 3 -30 8 -78 11 -106 4 -38
2 -53 -7 -53 -7 0 -5 -8 6 -20 14 -15 16 -23 8 -31 -6 -6 -9 -18 -6 -25 3 -9
-2 -14 -16 -14 -12 0 -21 5 -21 10 0 6 5 10 11 10 7 0 0 11 -15 25 -22 20 -25
29 -16 39 8 11 8 15 0 18 -7 2 -12 23 -13 46 -1 23 -5 42 -9 42 -4 0 -8 10 -8
23 -1 192 2 270 11 294 l11 28 13 -35 c7 -19 15 -69 19 -109z"/>
<path d="M1820 4440 c0 -5 5 -10 10 -10 6 0 10 5 10 10 0 6 -4 10 -10 10 -5 0
-10 -4 -10 -10z"/>
<path d="M1595 4310 c-8 -13 14 -42 26 -34 5 3 9 14 9 25 0 20 -24 26 -35 9z"/>
<path d="M997 3999 c-147 -149 -348 -451 -401 -604 -78 -227 -53 -575 65 -880
105 -272 239 -461 429 -604 71 -54 245 -151 270 -151 6 0 -27 44 -73 97 -215
251 -317 398 -407 586 -184 386 -213 776 -84 1110 58 152 131 279 274 479 57
80 25 66 -73 -33z"/>
<path d="M2570 3606 c0 -7 7 -19 15 -26 13 -11 15 -8 13 14 -2 26 -28 38 -28
12z"/>
<path d="M2350 3589 c0 -13 42 -49 57 -49 10 0 11 4 2 18 -12 20 -59 45 -59
31z"/>
<path d="M2511 3454 c0 -11 3 -14 6 -6 3 7 2 16 -1 19 -3 4 -6 -2 -5 -13z"/>
<path d="M865 3334 c-10 -11 -13 -20 -7 -26 16 -16 44 -5 53 20 7 18 5 22 -11
22 -10 0 -26 -7 -35 -16z"/>
<path d="M2343 3343 c-20 -8 -15 -23 7 -23 11 0 20 7 20 15 0 15 -6 17 -27 8z"/>
<path d="M519 3317 c-8 -12 -24 -60 -35 -107 -16 -70 -19 -122 -18 -300 0
-198 2 -223 26 -315 15 -55 24 -103 22 -107 -3 -5 -1 -8 4 -8 5 0 15 -14 22
-30 23 -56 21 -24 -4 51 -37 114 -66 291 -66 405 0 93 20 230 52 349 12 48 19
85 16 85 -2 0 -10 -11 -19 -23z"/>
<path d="M4091 3294 c0 -11 3 -14 6 -6 3 7 2 16 -1 19 -3 4 -6 -2 -5 -13z"/>
<path d="M2148 3253 c7 -3 16 -2 19 1 4 3 -2 6 -13 5 -11 0 -14 -3 -6 -6z"/>
<path d="M3538 3239 c-26 -15 -22 -48 7 -61 49 -22 98 25 63 60 -15 15 -47 15
-70 1z"/>
<path d="M4122 3207 c-10 -11 -9 -17 3 -27 24 -20 45 4 24 26 -14 13 -17 13
-27 1z"/>
<path d="M3705 3200 c-3 -5 -1 -10 4 -10 6 0 11 5 11 10 0 6 -2 10 -4 10 -3 0
-8 -4 -11 -10z"/>
<path d="M391 3077 c-43 -134 -55 -242 -48 -442 4 -132 11 -194 31 -277 51
-219 141 -433 236 -560 28 -36 88 -102 135 -147 90 -85 289 -223 365 -255 85
-35 145 -59 165 -66 59 -22 75 -31 75 -40 0 -5 5 -10 12 -10 6 0 48 -11 92
-24 45 -13 94 -27 109 -30 15 -4 25 -11 22 -16 -3 -5 16 -12 42 -15 64 -8 146
-26 158 -34 18 -12 157 -52 277 -80 147 -34 395 -37 551 -7 285 56 623 260
835 505 63 73 84 113 35 65 -184 -176 -494 -308 -846 -360 -151 -22 -449 -29
-592 -15 -421 44 -775 176 -991 372 -30 27 -52 49 -50 49 2 0 46 -26 97 -59
235 -147 537 -255 864 -307 133 -21 442 -24 585 -6 393 52 705 183 920 388 77
74 196 224 177 224 -2 0 -23 -27 -46 -59 -164 -235 -475 -422 -832 -503 -94
-21 -128 -23 -344 -22 -257 0 -391 16 -606 70 -283 70 -725 263 -894 389 -232
173 -414 473 -490 807 -8 36 -19 117 -24 180 -8 104 -6 163 14 321 4 31 5 57
2 57 -3 0 -19 -42 -36 -93z"/>
<path d="M779 3041 c8 -5 10 -14 6 -21 -5 -9 -4 -11 3 -6 18 11 14 36 -5 36
-14 0 -15 -2 -4 -9z"/>
<path d="M832 3034 c2 -12 12 -18 28 -18 36 0 33 28 -3 32 -23 3 -28 0 -25
-14z"/>
<path d="M920 3039 c0 -5 5 -7 10 -4 6 3 10 8 10 11 0 2 -4 4 -10 4 -5 0 -10
-5 -10 -11z"/>
<path d="M3525 3041 c-3 -6 11 -13 32 -16 21 -4 47 -9 58 -11 20 -5 20 -5 0
11 -11 8 -25 13 -32 11 -7 -3 -13 -1 -13 4 0 13 -37 13 -45 1z"/>
<path d="M934 3008 c-4 -7 -3 -8 5 -4 6 4 20 2 29 -6 15 -12 16 -11 3 5 -16
20 -27 22 -37 5z"/>
<path d="M3690 2980 c0 -5 7 -10 16 -10 8 0 12 5 9 10 -3 6 -10 10 -16 10 -5
0 -9 -4 -9 -10z"/>
<path d="M2378 2873 c7 -3 16 -2 19 1 4 3 -2 6 -13 5 -11 0 -14 -3 -6 -6z"/>
<path d="M1525 2841 c-6 -11 33 -36 42 -27 5 5 -21 36 -31 36 -3 0 -7 -4 -11
-9z"/>
<path d="M1550 2780 c11 -21 22 -25 33 -13 9 9 -12 33 -30 33 -11 0 -11 -4 -3
-20z"/>
<path d="M2725 2690 c11 -5 27 -9 35 -9 9 0 8 4 -5 9 -11 5 -27 9 -35 9 -9 0
-8 -4 5 -9z"/>
<path d="M2665 2549 c-4 -6 1 -16 10 -23 17 -12 17 -13 -1 -21 -20 -9 -29 -12
-42 -14 -4 0 -8 -10 -9 -20 -1 -15 7 -22 30 -26 18 -4 40 -14 50 -23 15 -13
22 -14 37 -4 11 6 26 9 34 6 9 -3 17 3 21 16 9 28 2 34 -23 21 -26 -14 -82
-14 -82 -1 0 6 5 10 10 10 6 0 10 6 10 13 0 8 11 19 25 25 28 13 34 32 9 32
-8 0 -12 -4 -9 -10 11 -17 -11 -11 -35 10 -27 23 -27 23 -35 9z"/>
<path d="M3813 2541 c3 -13 1 -19 -5 -15 -6 4 -9 1 -6 -7 3 -8 15 -15 27 -17
19 -3 22 0 19 25 -2 18 -10 29 -22 31 -15 3 -18 0 -13 -17z"/>
<path d="M3852 2380 c0 -14 2 -19 5 -12 2 6 2 18 0 25 -3 6 -5 1 -5 -13z"/>
<path d="M590 2336 c0 -11 30 -66 36 -66 2 0 -3 15 -12 33 -19 36 -24 44 -24
33z"/>
<path d="M640 2238 c0 -8 40 -77 63 -108 10 -14 36 -49 57 -79 22 -30 40 -50
40 -44 0 5 -15 30 -34 54 -18 24 -54 75 -80 113 -25 39 -46 67 -46 64z"/>
<path d="M818 1975 c6 -11 23 -32 40 -47 16 -14 31 -30 33 -35 7 -16 69 -55
63 -39 -3 8 -12 17 -20 20 -8 3 -14 12 -14 19 0 14 -65 70 -74 65 -3 -2 -12 6
-21 17 l-16 20 9 -20z"/>
<path d="M426 1883 c11 -49 108 -235 177 -339 99 -150 197 -242 327 -308 204
-103 609 -230 805 -251 33 -3 74 -8 90 -11 65 -10 -5 16 -131 51 -144 39 -291
86 -314 100 -8 5 -23 11 -34 12 -34 6 -280 130 -360 183 -114 74 -247 183
-242 197 3 7 -1 10 -7 7 -15 -5 -120 99 -177 176 -23 30 -60 90 -83 132 -43
80 -62 99 -51 51z"/>
<path d="M1010 1790 c25 -23 46 -37 48 -30 5 13 -18 33 -63 56 -25 13 -23 8
15 -26z"/>
<path d="M1080 1740 c0 -5 5 -10 11 -10 5 0 7 5 4 10 -3 6 -8 10 -11 10 -2 0
-4 -4 -4 -10z"/>
<path d="M1440 1590 c0 -5 5 -10 10 -10 6 0 10 5 10 10 0 6 -4 10 -10 10 -5 0
-10 -4 -10 -10z"/>
<path d="M1735 1530 c3 -5 11 -10 16 -10 6 0 7 5 4 10 -3 6 -11 10 -16 10 -6
0 -7 -4 -4 -10z"/>
</g>
</svg>
